<svg id="Camada_1" data-name="Camada 1" xmlns="http://www.w3.org/2000/svg" viewBox="0 0 795.4 140.07"><defs><style>.cls-1{fill:#172f57;}.cls-2{fill:#2cbe86;}</style></defs><path class="cls-1" d="M573.81,130.05l0-.05a9.88,9.88,0,0,0-1.21-1.21L497.9,54.13a8.75,8.75,0,0,0-15.52,5.56V182.25c0,4.83,5,8.75,9.86,8.75a9,9,0,0,0,9.05-8.75V144.31H567A8.75,8.75,0,0,0,573.8,130Z" transform="translate(-2.3 -50.93)"/><path class="cls-1" d="M686.64,59.69a8.76,8.76,0,0,0-8.75-8.76h-76.2v0A8.7,8.7,0,0,0,597,52.54h0c-.22.16-.43.32-.63.49l-.05,0c-.19.17-.37.34-.54.52a.6.6,0,0,1-.08.08c-.16.17-.32.35-.46.53a1.71,1.71,0,0,0-.11.14c-.13.17-.26.34-.38.52l-.12.2c-.1.17-.21.33-.3.51s-.09.18-.13.27-.16.31-.23.48l-.12.35a3.29,3.29,0,0,0-.16.44c0,.14-.08.28-.11.43s-.07.26-.1.4a4.37,4.37,0,0,0-.08.54c0,.1,0,.21-.05.31a8.69,8.69,0,0,0,0,.89v75.87a8.76,8.76,0,0,0,8.76,8.75h75.87c4.83,0,8.75-5,8.75-9.87a9,9,0,0,0-8.75-9H610.77L683.4,66.5h0A8.73,8.73,0,0,0,686.64,59.69Z" transform="translate(-2.3 -50.93)"/><path class="cls-1" d="M455.71,50.93H327.31a8.76,8.76,0,0,0-8.76,8.76v75.87c0,4.83,5,8.75,9.88,8.75a9,9,0,0,0,9-8.75V69.85l64.83,71.34v0a8.75,8.75,0,0,0,15.57-5.5V69.85h27.68v65.71a9,9,0,0,0,9,8.75c4.83,0,9.94-3.92,9.94-8.75V59.69A8.76,8.76,0,0,0,455.71,50.93Z" transform="translate(-2.3 -50.93)"/><path class="cls-1" d="M291.89,50.93H216.2a8.76,8.76,0,0,0-8.76,8.76c0,4.83,3.92,10.16,8.76,10.16h67.11l-72.62,58.9h0a8.75,8.75,0,0,0,5.5,15.56h76v0a8.7,8.7,0,0,0,4.73-1.59h0a5.91,5.91,0,0,0,.63-.49s0,0,0,0a6.64,6.64,0,0,0,.55-.51l.08-.09c.16-.17.31-.34.46-.52a1.71,1.71,0,0,1,.11-.14,6.15,6.15,0,0,0,.37-.52,2.39,2.39,0,0,0,.13-.21l.3-.5c0-.09.08-.18.13-.27s.15-.32.22-.48.09-.23.13-.35.11-.29.16-.44.07-.29.11-.43.07-.27.1-.4.06-.36.08-.54,0-.21.05-.32a8.51,8.51,0,0,0,0-.88V59.69A8.76,8.76,0,0,0,291.89,50.93Z" transform="translate(-2.3 -50.93)"/><path class="cls-1" d="M180.84,50.93H96v93.74h9.11v0c4.7-.17,9.87-4,9.87-8.77v-66h65.82c4.85,0,8.79-5.34,8.79-10.2A8.8,8.8,0,0,0,180.84,50.93Z" transform="translate(-2.3 -50.93)"/><path class="cls-2" d="M89.87,53.81,5.55,129.05h0a8.78,8.78,0,0,0,5.52,15.62H96V51A8.76,8.76,0,0,0,89.87,53.81Z" transform="translate(-2.3 -50.93)"/><path class="cls-1" d="M789,50.93H712.9a8.76,8.76,0,0,0-8.75,8.76v75.87a8.75,8.75,0,0,0,8.75,8.75c4.84,0,10.16-3.92,10.16-8.75V69.85H789a9,9,0,0,0,8.75-9C797.7,56,793.78,50.93,789,50.93Z" transform="translate(-2.3 -50.93)"/></svg>